<mxfile host="app.diagrams.net" agent="Mozilla/5.0 (Windows NT 10.0; Win64; x64) AppleWebKit/537.36 (KHTML, like Gecko) Chrome/130.0.0.0 Safari/537.36 Edg/130.0.0.0" version="24.8.3">
  <diagram name="Page-1" id="J9g2O14Uw9vX5HxH-n-V">
    <mxGraphModel dx="1213" dy="663" grid="1" gridSize="10" guides="1" tooltips="1" connect="1" arrows="1" fold="1" page="1" pageScale="1" pageWidth="850" pageHeight="1100" math="0" shadow="0">
      <root>
        <mxCell id="0" />
        <mxCell id="1" parent="0" />
        <mxCell id="QHcA-1QilDFWebVEuCo4-1" value="&amp;lt;&amp;lt;Interface&amp;gt;&amp;gt;&lt;br&gt;Notifier" style="swimlane;fontStyle=0;childLayout=stackLayout;horizontal=1;startSize=30;horizontalStack=0;resizeParent=1;resizeParentMax=0;resizeLast=0;collapsible=1;marginBottom=0;whiteSpace=wrap;html=1;" vertex="1" parent="1">
          <mxGeometry x="355" y="110" width="140" height="90" as="geometry" />
        </mxCell>
        <mxCell id="QHcA-1QilDFWebVEuCo4-2" value="+notify()" style="text;strokeColor=none;fillColor=none;align=left;verticalAlign=middle;spacingLeft=4;spacingRight=4;overflow=hidden;points=[[0,0.5],[1,0.5]];portConstraint=eastwest;rotatable=0;whiteSpace=wrap;html=1;" vertex="1" parent="QHcA-1QilDFWebVEuCo4-1">
          <mxGeometry y="30" width="140" height="30" as="geometry" />
        </mxCell>
        <mxCell id="QHcA-1QilDFWebVEuCo4-3" value="+additional_notification()" style="text;strokeColor=none;fillColor=none;align=left;verticalAlign=middle;spacingLeft=4;spacingRight=4;overflow=hidden;points=[[0,0.5],[1,0.5]];portConstraint=eastwest;rotatable=0;whiteSpace=wrap;html=1;" vertex="1" parent="QHcA-1QilDFWebVEuCo4-1">
          <mxGeometry y="60" width="140" height="30" as="geometry" />
        </mxCell>
        <mxCell id="QHcA-1QilDFWebVEuCo4-24" value="" style="group" vertex="1" connectable="0" parent="1">
          <mxGeometry x="355" y="260" width="140" height="160" as="geometry" />
        </mxCell>
        <mxCell id="QHcA-1QilDFWebVEuCo4-5" value="&amp;lt;&amp;lt;Class&amp;gt;&amp;gt;&lt;br&gt;NotificationDecorator" style="swimlane;fontStyle=0;childLayout=stackLayout;horizontal=1;startSize=30;horizontalStack=0;resizeParent=1;resizeParentMax=0;resizeLast=0;collapsible=1;marginBottom=0;whiteSpace=wrap;html=1;movable=0;resizable=0;rotatable=0;deletable=0;editable=0;locked=1;connectable=0;" vertex="1" parent="QHcA-1QilDFWebVEuCo4-24">
          <mxGeometry width="140" height="160" as="geometry" />
        </mxCell>
        <mxCell id="QHcA-1QilDFWebVEuCo4-7" value="-notifier : Notifier" style="text;strokeColor=none;fillColor=none;align=left;verticalAlign=middle;spacingLeft=4;spacingRight=4;overflow=hidden;points=[[0,0.5],[1,0.5]];portConstraint=eastwest;rotatable=0;whiteSpace=wrap;html=1;movable=0;resizable=0;deletable=0;editable=0;locked=1;connectable=0;" vertex="1" parent="QHcA-1QilDFWebVEuCo4-5">
          <mxGeometry y="30" width="140" height="30" as="geometry" />
        </mxCell>
        <mxCell id="QHcA-1QilDFWebVEuCo4-8" value="" style="endArrow=none;html=1;rounded=0;exitX=0;exitY=0.5;exitDx=0;exitDy=0;entryX=1;entryY=0.5;entryDx=0;entryDy=0;" edge="1" parent="QHcA-1QilDFWebVEuCo4-24">
          <mxGeometry width="50" height="50" relative="1" as="geometry">
            <mxPoint y="63" as="sourcePoint" />
            <mxPoint x="140" y="63" as="targetPoint" />
          </mxGeometry>
        </mxCell>
        <mxCell id="QHcA-1QilDFWebVEuCo4-10" value="+notify()" style="text;strokeColor=none;fillColor=none;align=left;verticalAlign=middle;spacingLeft=4;spacingRight=4;overflow=hidden;points=[[0,0.5],[1,0.5]];portConstraint=eastwest;rotatable=0;whiteSpace=wrap;html=1;" vertex="1" parent="QHcA-1QilDFWebVEuCo4-24">
          <mxGeometry y="65" width="140" height="30" as="geometry" />
        </mxCell>
        <mxCell id="QHcA-1QilDFWebVEuCo4-11" value="+additional_notification()" style="text;strokeColor=none;fillColor=none;align=left;verticalAlign=middle;spacingLeft=4;spacingRight=4;overflow=hidden;points=[[0,0.5],[1,0.5]];portConstraint=eastwest;rotatable=0;whiteSpace=wrap;html=1;" vertex="1" parent="QHcA-1QilDFWebVEuCo4-24">
          <mxGeometry y="90" width="140" height="30" as="geometry" />
        </mxCell>
        <mxCell id="QHcA-1QilDFWebVEuCo4-43" value="" style="group;movable=1;resizable=1;rotatable=1;deletable=1;editable=1;locked=0;connectable=1;" vertex="1" connectable="0" parent="1">
          <mxGeometry x="330" y="890" width="210" height="350" as="geometry" />
        </mxCell>
        <mxCell id="QHcA-1QilDFWebVEuCo4-44" value="&amp;lt;&amp;lt;Class&amp;gt;&amp;gt;&lt;br&gt;Triage" style="swimlane;fontStyle=0;childLayout=stackLayout;horizontal=1;startSize=30;horizontalStack=0;resizeParent=1;resizeParentMax=0;resizeLast=0;collapsible=1;marginBottom=0;whiteSpace=wrap;html=1;movable=1;resizable=1;rotatable=1;deletable=1;editable=1;locked=0;connectable=1;" vertex="1" parent="QHcA-1QilDFWebVEuCo4-43">
          <mxGeometry width="210" height="158.94736842105263" as="geometry" />
        </mxCell>
        <mxCell id="QHcA-1QilDFWebVEuCo4-45" value="-patients: list&amp;nbsp;&lt;br&gt;-nurses: list&amp;nbsp;&lt;br&gt;-triage_outcome: str&amp;nbsp;&lt;br&gt;-priority: str&lt;br&gt;-triage_type: str&lt;br&gt;-date: date&lt;br&gt;-patient_info: dict&lt;br&gt;-nurse_info: dict  " style="text;strokeColor=none;fillColor=none;align=left;verticalAlign=middle;spacingLeft=4;spacingRight=4;overflow=hidden;points=[[0,0.5],[1,0.5]];portConstraint=eastwest;rotatable=1;whiteSpace=wrap;html=1;movable=1;resizable=1;deletable=1;editable=1;locked=0;connectable=1;" vertex="1" parent="QHcA-1QilDFWebVEuCo4-44">
          <mxGeometry y="30" width="210" height="128.94736842105263" as="geometry" />
        </mxCell>
        <mxCell id="QHcA-1QilDFWebVEuCo4-51" value="" style="group" vertex="1" connectable="0" parent="QHcA-1QilDFWebVEuCo4-43">
          <mxGeometry x="-3" y="156.57894736842104" width="213" height="193.42105263157893" as="geometry" />
        </mxCell>
        <mxCell id="QHcA-1QilDFWebVEuCo4-49" value="+set_patient_info(patient_info: dict)&lt;br&gt;+set_nurse_info(nurse_info: dict)&lt;br&gt;+get_patient_info()&lt;br&gt;+get_nurse_info()&lt;br&gt;+get_priority()&lt;br&gt;+get_mode()&lt;br&gt;+perform_triage()&lt;br&gt;+notify_patient_nurse()&lt;div&gt;+notify()&lt;/div&gt;" style="rounded=0;whiteSpace=wrap;html=1;align=left;" vertex="1" parent="QHcA-1QilDFWebVEuCo4-51">
          <mxGeometry x="3" width="210" height="180" as="geometry" />
        </mxCell>
        <mxCell id="QHcA-1QilDFWebVEuCo4-58" value="&amp;lt;&amp;lt;Class&amp;gt;&amp;gt;&lt;br&gt;PatientNotifier" style="swimlane;fontStyle=0;childLayout=stackLayout;horizontal=1;startSize=30;horizontalStack=0;resizeParent=1;resizeParentMax=0;resizeLast=0;collapsible=1;marginBottom=0;whiteSpace=wrap;html=1;movable=1;resizable=1;rotatable=1;deletable=1;editable=1;locked=0;connectable=1;" vertex="1" parent="1">
          <mxGeometry x="545" y="553" width="140" height="60" as="geometry" />
        </mxCell>
        <mxCell id="QHcA-1QilDFWebVEuCo4-59" value="-nurse_info : Notifier" style="text;strokeColor=none;fillColor=none;align=left;verticalAlign=middle;spacingLeft=4;spacingRight=4;overflow=hidden;points=[[0,0.5],[1,0.5]];portConstraint=eastwest;rotatable=1;whiteSpace=wrap;html=1;movable=1;resizable=1;deletable=1;editable=1;locked=0;connectable=1;" vertex="1" parent="QHcA-1QilDFWebVEuCo4-58">
          <mxGeometry y="30" width="140" height="30" as="geometry" />
        </mxCell>
        <mxCell id="QHcA-1QilDFWebVEuCo4-60" value="&lt;span style=&quot;color: rgba(0, 0, 0, 0); font-family: monospace; font-size: 0px; text-align: start; text-wrap-mode: nowrap;&quot;&gt;+notify&lt;/span&gt;" style="rounded=0;whiteSpace=wrap;html=1;" vertex="1" parent="1">
          <mxGeometry x="545" y="613" width="140" height="30" as="geometry" />
        </mxCell>
        <mxCell id="QHcA-1QilDFWebVEuCo4-61" value="+notify()" style="text;html=1;align=left;verticalAlign=middle;whiteSpace=wrap;rounded=0;" vertex="1" parent="1">
          <mxGeometry x="550" y="613" width="60" height="30" as="geometry" />
        </mxCell>
        <mxCell id="QHcA-1QilDFWebVEuCo4-38" value="&amp;lt;&amp;lt;Class&amp;gt;&amp;gt;&lt;br&gt;SimultaneousNotifier" style="swimlane;fontStyle=0;childLayout=stackLayout;horizontal=1;startSize=30;horizontalStack=0;resizeParent=1;resizeParentMax=0;resizeLast=0;collapsible=1;marginBottom=0;whiteSpace=wrap;html=1;movable=1;resizable=1;rotatable=1;deletable=1;editable=1;locked=0;connectable=1;" vertex="1" parent="1">
          <mxGeometry x="60" y="950" width="140" height="90" as="geometry" />
        </mxCell>
        <mxCell id="QHcA-1QilDFWebVEuCo4-39" value="-notifier : Notifier" style="text;strokeColor=none;fillColor=none;align=left;verticalAlign=middle;spacingLeft=4;spacingRight=4;overflow=hidden;points=[[0,0.5],[1,0.5]];portConstraint=eastwest;rotatable=1;whiteSpace=wrap;html=1;movable=1;resizable=1;deletable=1;editable=1;locked=0;connectable=1;" vertex="1" parent="QHcA-1QilDFWebVEuCo4-38">
          <mxGeometry y="30" width="140" height="30" as="geometry" />
        </mxCell>
        <mxCell id="QHcA-1QilDFWebVEuCo4-42" value="+additional_notification()" style="text;strokeColor=none;fillColor=none;align=left;verticalAlign=middle;spacingLeft=4;spacingRight=4;overflow=hidden;points=[[0,0.5],[1,0.5]];portConstraint=eastwest;rotatable=0;whiteSpace=wrap;html=1;" vertex="1" parent="QHcA-1QilDFWebVEuCo4-38">
          <mxGeometry y="60" width="140" height="30" as="geometry" />
        </mxCell>
        <mxCell id="QHcA-1QilDFWebVEuCo4-40" value="" style="endArrow=none;html=1;rounded=0;exitX=0;exitY=0.5;exitDx=0;exitDy=0;entryX=1;entryY=0.5;entryDx=0;entryDy=0;" edge="1" parent="1">
          <mxGeometry width="50" height="50" relative="1" as="geometry">
            <mxPoint x="60" y="1013" as="sourcePoint" />
            <mxPoint x="200" y="1013" as="targetPoint" />
          </mxGeometry>
        </mxCell>
        <mxCell id="QHcA-1QilDFWebVEuCo4-62" value="1" style="endArrow=open;html=1;endSize=12;startArrow=diamondThin;startSize=14;startFill=0;edgeStyle=orthogonalEdgeStyle;align=left;verticalAlign=bottom;rounded=0;exitX=0.25;exitY=0;exitDx=0;exitDy=0;entryX=0;entryY=0.043;entryDx=0;entryDy=0;entryPerimeter=0;" edge="1" parent="1" source="QHcA-1QilDFWebVEuCo4-38" target="QHcA-1QilDFWebVEuCo4-45">
          <mxGeometry x="-0.8115" y="15" relative="1" as="geometry">
            <mxPoint x="90" y="900" as="sourcePoint" />
            <mxPoint x="250" y="900" as="targetPoint" />
            <mxPoint as="offset" />
          </mxGeometry>
        </mxCell>
        <mxCell id="QHcA-1QilDFWebVEuCo4-63" value="" style="endArrow=classic;html=1;rounded=0;" edge="1" parent="1">
          <mxGeometry width="50" height="50" relative="1" as="geometry">
            <mxPoint x="420" y="500" as="sourcePoint" />
            <mxPoint x="420" y="420" as="targetPoint" />
          </mxGeometry>
        </mxCell>
        <mxCell id="QHcA-1QilDFWebVEuCo4-64" value="" style="endArrow=none;html=1;rounded=0;" edge="1" parent="1">
          <mxGeometry width="50" height="50" relative="1" as="geometry">
            <mxPoint x="290" y="500" as="sourcePoint" />
            <mxPoint x="580" y="500" as="targetPoint" />
          </mxGeometry>
        </mxCell>
        <mxCell id="QHcA-1QilDFWebVEuCo4-65" value="" style="endArrow=none;html=1;rounded=0;" edge="1" parent="1">
          <mxGeometry width="50" height="50" relative="1" as="geometry">
            <mxPoint x="290" y="560" as="sourcePoint" />
            <mxPoint x="290" y="500" as="targetPoint" />
          </mxGeometry>
        </mxCell>
        <mxCell id="QHcA-1QilDFWebVEuCo4-26" value="&amp;lt;&amp;lt;Class&amp;gt;&amp;gt;&lt;br&gt;PatientNotifier" style="swimlane;fontStyle=0;childLayout=stackLayout;horizontal=1;startSize=30;horizontalStack=0;resizeParent=1;resizeParentMax=0;resizeLast=0;collapsible=1;marginBottom=0;whiteSpace=wrap;html=1;movable=1;resizable=1;rotatable=1;deletable=1;editable=1;locked=0;connectable=1;" vertex="1" parent="1">
          <mxGeometry x="180" y="550" width="140" height="60" as="geometry" />
        </mxCell>
        <mxCell id="QHcA-1QilDFWebVEuCo4-27" value="-patient_info : Notifier" style="text;strokeColor=none;fillColor=none;align=left;verticalAlign=middle;spacingLeft=4;spacingRight=4;overflow=hidden;points=[[0,0.5],[1,0.5]];portConstraint=eastwest;rotatable=1;whiteSpace=wrap;html=1;movable=1;resizable=1;deletable=1;editable=1;locked=0;connectable=1;" vertex="1" parent="QHcA-1QilDFWebVEuCo4-26">
          <mxGeometry y="30" width="140" height="30" as="geometry" />
        </mxCell>
        <mxCell id="QHcA-1QilDFWebVEuCo4-52" value="&lt;span style=&quot;color: rgba(0, 0, 0, 0); font-family: monospace; font-size: 0px; text-align: start; text-wrap-mode: nowrap;&quot;&gt;+notify&lt;/span&gt;" style="rounded=0;whiteSpace=wrap;html=1;" vertex="1" parent="1">
          <mxGeometry x="180" y="610" width="140" height="30" as="geometry" />
        </mxCell>
        <mxCell id="QHcA-1QilDFWebVEuCo4-54" value="+notify()" style="text;html=1;align=left;verticalAlign=middle;whiteSpace=wrap;rounded=0;" vertex="1" parent="1">
          <mxGeometry x="185" y="610" width="60" height="30" as="geometry" />
        </mxCell>
        <mxCell id="QHcA-1QilDFWebVEuCo4-66" value="" style="endArrow=none;html=1;rounded=0;exitX=0.25;exitY=0;exitDx=0;exitDy=0;" edge="1" parent="1" source="QHcA-1QilDFWebVEuCo4-58">
          <mxGeometry width="50" height="50" relative="1" as="geometry">
            <mxPoint x="580" y="560" as="sourcePoint" />
            <mxPoint x="580" y="500" as="targetPoint" />
          </mxGeometry>
        </mxCell>
        <mxCell id="QHcA-1QilDFWebVEuCo4-67" value="" style="endArrow=classic;html=1;rounded=0;" edge="1" parent="1">
          <mxGeometry width="50" height="50" relative="1" as="geometry">
            <mxPoint x="424" y="260" as="sourcePoint" />
            <mxPoint x="424" y="200" as="targetPoint" />
          </mxGeometry>
        </mxCell>
      </root>
    </mxGraphModel>
  </diagram>
</mxfile>
